<?xml version="1.0" encoding="UTF-8" standalone="no"?>
<!-- Creator: CorelDRAW -->

<svg
   xmlns:dc="http://purl.org/dc/elements/1.1/"
   xmlns:cc="http://creativecommons.org/ns#"
   xmlns:rdf="http://www.w3.org/1999/02/22-rdf-syntax-ns#"
   xmlns:svg="http://www.w3.org/2000/svg"
   xmlns="http://www.w3.org/2000/svg"
   xmlns:sodipodi="http://sodipodi.sourceforge.net/DTD/sodipodi-0.dtd"
   xmlns:inkscape="http://www.inkscape.org/namespaces/inkscape"
   xml:space="preserve"
   width="100%"
   height="100%"
   style="shape-rendering:geometricPrecision; text-rendering:geometricPrecision; image-rendering:optimizeQuality; fill-rule:evenodd; clip-rule:evenodd"
   viewBox="0 0 1.01614 0.64036"
   id="svg2"
   version="1.1"
   inkscape:version="0.91 r13725"
   sodipodi:docname="Hebrew_letter_lamed.svg"><metadata
     id="metadata15"><rdf:RDF><cc:Work
         rdf:about=""><dc:format>image/svg+xml</dc:format><dc:type
           rdf:resource="http://purl.org/dc/dcmitype/StillImage" /></cc:Work></rdf:RDF></metadata><sodipodi:namedview
     pagecolor="#ffffff"
     bordercolor="#666666"
     borderopacity="1"
     objecttolerance="10"
     gridtolerance="10"
     guidetolerance="10"
     inkscape:pageopacity="0"
     inkscape:pageshadow="2"
     inkscape:window-width="1366"
     inkscape:window-height="716"
     id="namedview13"
     showgrid="false"
     inkscape:zoom="0.16"
     inkscape:cx="-296.875"
     inkscape:cy="-1456.7837"
     inkscape:window-x="0"
     inkscape:window-y="26"
     inkscape:window-maximized="1"
     inkscape:current-layer="svg2" /><defs
     id="defs4"><style
       type="text/css"
       id="style6"><![CDATA[
    .fil0 {fill:#1F1A17;fill-rule:nonzero}
   ]]></style><filter
       style="color-interpolation-filters:sRGB"
       id="filter4156"
       inkscape:label="filter1"><feTurbulence
         id="feTurbulence4160"
         baseFrequency="0.0050000000000000001 0.001"
         numOctaves="1"
         seed="374" /><feColorMatrix
         id="feColorMatrix4162"
         type="matrix"
         values="2.7755576e-17 0 0 0 1 2 0 0 0 0 0 0 0 0 0 3 0 0 1 0 " /><feGaussianBlur
         stdDeviation="0.01 14.1"
         id="feGaussianBlur4164" /></filter><filter
       inkscape:collect="always"
       style="color-interpolation-filters:sRGB"
       id="filter4285"
       x="-0.17055796"
       width="1.3411159"
       y="-0.079017596"
       height="1.1580352"><feGaussianBlur
         inkscape:collect="always"
         stdDeviation="75.133575"
         id="feGaussianBlur4287" /></filter></defs><path
     style="fill:#1f1a17;fill-rule:nonzero"
     inkscape:connector-curvature="0"
     d="m 444.44666,784.66787 c -4.2111,15.71587 -11.1687,27.5798 -20.87724,35.59065 -9.76556,7.99559 -23.76507,16.18204 -42.0721,24.60542 -18.29055,8.36203 -30.34156,14.48565 -36.11119,18.44321 -5.83223,3.94543 -9.55637,9.17955 -11.26361,15.55097 -1.04457,3.89826 0.6684,6.41581 5.12356,7.60955 l 15.5931,4.17816 -9.56654,35.7028 -18.31619,-4.90784 c -10.39685,-2.78582 -17.91635,-8.38197 -22.70213,-16.76106 -4.70358,-8.4229 -5.59605,-18.21212 -2.57875,-29.47278 3.499,-13.0586 9.36424,-22.82774 17.67789,-29.35123 8.31478,-6.5278 21.97656,-13.94472 41.04109,-22.23092 19.06451,-8.28623 32.00161,-15.96303 38.86283,-23.012 6.9226,-7.03248 11.54972,-15.14537 14.00307,-24.30123 l 6.79832,-25.37171 c 2.03854,-7.60798 -1.13857,-12.57165 -9.61481,-14.84286 l -73.08059,-19.58189 c -14.60215,-3.91259 -24.18707,-9.4653 -28.75938,-16.65921 -4.52733,-7.11611 -4.44459,-19.56261 0.28112,-37.19913 l 9.9143,-37.00075 31.18622,8.35632 -9.23519,34.46621 c -1.77419,6.62135 0.98319,10.94149 8.40702,12.93069 l 71.22138,19.0837 c 29.01998,7.77591 39.95201,24.89397 32.85534,51.37941 l -8.78752,32.79552 z"
     class="fil0"
     id="1" /><path
     style="opacity:1;fill:#ffea3b;fill-opacity:1;stroke:none;stroke-width:9;stroke-linecap:round;stroke-linejoin:round;stroke-miterlimit:4;stroke-dasharray:none;stroke-opacity:1"
     id="path4147"
     sodipodi:type="arc"
     sodipodi:cx="603.125"
     sodipodi:cy="-152.48462"
     sodipodi:rx="353.125"
     sodipodi:ry="353.125"
     sodipodi:start="0"
     sodipodi:end="6.2644056"
     sodipodi:open="true"
     d="M 956.25,-152.48462 A 353.125,353.125 0 0 1 604.78289,200.63649 353.125,353.125 0 0 1 250.01557,-149.16888 353.125,353.125 0 0 1 598.15148,-505.57459 353.125,353.125 0 0 1 956.18773,-159.11581" /><path
     d="m 6061.125,3714.2654 a 714.25,714.25 0 0 1 -710.8967,714.2421 714.25,714.25 0 0 1 -717.5718,-707.5355 714.25,714.25 0 0 1 704.1588,-720.8858 714.25,714.25 0 0 1 724.1838,700.7666"
     sodipodi:open="true"
     sodipodi:end="6.2644056"
     sodipodi:start="0"
     sodipodi:ry="714.25"
     sodipodi:rx="714.25"
     sodipodi:cy="3714.2654"
     sodipodi:cx="5346.875"
     sodipodi:type="arc"
     id="path4149"
     style="opacity:1;fill:#ffea3b;fill-opacity:1;stroke:none;stroke-width:9;stroke-linecap:round;stroke-linejoin:round;stroke-miterlimit:4;stroke-dasharray:none;stroke-opacity:1" /><path
     class="fil0"
     d="m 1762.347,687.18089 c -11.933,43.24258 -3.41,76.21342 25.997,99.48341 29.536,22.81117 77.447,42.79558 144.293,60.23456 l 483.762,125.76445 c 42.585,11.07038 78.364,24.41819 107.407,39.57919 28.434,15.411 51.083,34.9178 67.456,58.3196 16.384,23.3928 27.398,47.4583 33.992,72.3356 6.628,24.8799 8.168,57.0472 4.676,95.954 -3.453,38.9007 -9.344,77.1382 -17.195,114.9059 -7.816,37.7702 -19.347,85.2137 -35.048,142.0471 -23.625,85.5771 -47.452,149.3689 -71.675,191.9335 -24.084,42.0973 -55.255,79.8661 -94.22,112.042 -39,32.1735 -107.42,78.8453 -206.021,140.9093 -100.837,64.4654 -175.92,116.4934 -224.534,157.2273 -48.497,40.2835 -78.902,82.7355 -90.975,126.5307 -3.89,14.0491 -7.252,31.8399 -9.817,54.3244 -2.57,22.4847 -5.417,38.4391 -7.876,47.3463 -18.816,68.1286 -59.625,93.7982 -123.074,77.3486 -63.42,-16.5319 -84.376,-62.756 -63.362,-138.9585 10.39,-37.6421 33.054,-76.5611 68.17,-117.298 35.112,-40.7368 79.72,-79.9943 134.016,-118.7882 53.671,-38.4429 97.736,-68.3256 131.191,-89.7995 32.849,-21.2162 73.261,-45.4158 120.179,-72.5594 98.758,-56.9349 165.613,-103.4985 200.041,-139.8943 34.436,-36.396 62.975,-96.5176 86.33,-181.0834 10.638,-38.5602 16.421,-70.8462 16.985,-97.4251 0.588,-26.4834 -5.161,-52.7165 -16.983,-79.4283 -11.814,-26.7959 -34.992,-49.9597 -68.95,-69.8351 -34.072,-19.4902 -80.584,-37.0776 -139.199,-52.3558 l -428.544,-111.475 c -84.758,-22.0286 -144.375,-54.1965 -179.263,-96.9921 -35.492,-42.5458 -44.308,-95.16595 -27.066,-157.68431 27.905,-101.08776 82.595,-205.27024 164.224,-312.98706 33.806,-41.63037 53.306,-72.79473 59.148,-93.99898 9.871,-35.72208 -13.343,-71.91129 -70.348,-107.95232 -59.017,-40.04258 -82.748,-81.93747 -70.935,-124.7216 6.617,-23.96761 15.371,-44.38399 26.096,-60.79155 10.763,-16.32219 21.167,-27.7391 32.345,-34.36935 10.577,-6.36916 21.226,-11.07139 31.382,-14.02706 9.532,-2.52397 17.844,-4.44383 24.163,-4.79002 l 8.619,0.78441 c -4.186,37.66324 18.134,69.62888 67.501,97.58049 82.064,43.01681 115.485,93.08401 99.78,149.92667 -1.294,4.68321 -20.665,35.47172 -57.891,93.31713 -37.248,57.75053 -60.834,92.43442 -70.052,105.20376 -34.449,43.92595 -55.889,82.16093 -64.725,114.11794 z"
     id="path4166"
     inkscape:connector-curvature="0"
     style="fill:#ffbb86;fill-opacity:1;fill-rule:nonzero;filter:url(#filter4156)" /><rect
     style="opacity:1;fill:#1c2529;fill-opacity:1;stroke:none;stroke-width:9;stroke-linecap:round;stroke-linejoin:round;stroke-miterlimit:4;stroke-dasharray:none;stroke-opacity:1"
     id="rect3345"
     width="2232.2168"
     height="2283.75"
     x="-2302.7334"
     y="109.89035"
     ry="188.02103" /><path
     style="fill:#fff027;fill-opacity:1;fill-rule:nonzero"
     inkscape:connector-curvature="0"
     id="path10"
     d="m -1372.4027,680.93089 c -11.9333,43.24258 -3.4101,76.21342 25.9967,99.48341 29.5356,22.81117 77.4468,42.79558 144.2931,60.23456 l 483.7617,125.76445 c 42.5848,11.07038 78.3646,24.41816 107.407,39.57919 28.434,15.411 51.0827,34.9178 67.4558,58.3196 16.3841,23.3928 27.3989,47.4583 33.9924,72.3356 6.6284,24.8799 8.1676,57.0472 4.6764,95.954 -3.4539,38.9007 -9.3441,77.1382 -17.1952,114.9059 -7.8163,37.7702 -19.3474,85.2137 -35.0487,142.0471 -23.6245,85.5771 -47.4511,149.3689 -71.6749,191.9335 -24.0836,42.0973 -55.2545,79.8661 -94.2193,112.042 -38.9999,32.1735 -107.4202,78.8453 -206.021,140.9093 -100.8378,64.4654 -175.9199,116.4934 -224.5348,157.2273 -48.497,40.2835 -78.9015,82.7355 -90.9743,126.5307 -3.8899,14.0491 -7.2522,31.8399 -9.8173,54.3244 -2.5698,22.4847 -5.4169,38.4391 -7.8759,47.3463 -18.8163,68.1286 -59.6252,93.7982 -123.0742,77.3486 -63.4198,-16.5319 -84.3761,-62.756 -63.3621,-138.9585 10.3903,-37.6421 33.054,-76.5611 68.1707,-117.298 35.1119,-40.7368 79.7195,-79.9943 134.0159,-118.7882 53.6709,-38.4429 97.7359,-68.3256 131.1903,-89.7995 32.8491,-21.2162 73.2609,-45.4158 120.1792,-72.5594 98.758,-56.9349 165.6134,-103.4985 200.0411,-139.8943 34.4364,-36.396 62.9753,-96.5176 86.3304,-181.0834 10.6377,-38.5602 16.4202,-70.8462 16.9843,-97.4251 0.5879,-26.4834 -5.1604,-52.7165 -16.983,-79.4283 -11.8137,-26.7959 -34.9918,-49.9597 -68.95,-69.8351 -34.0721,-19.4902 -80.5833,-37.0776 -139.1987,-52.3558 l -428.5436,-111.475 c -84.7579,-22.0286 -144.3755,-54.1965 -179.2636,-96.9921 -35.4919,-42.54578 -44.3075,-95.16595 -27.0654,-157.68431 27.9044,-101.08776 82.5945,-205.27024 164.2239,-312.98706 33.8056,-41.63037 53.3057,-72.79473 59.1477,-93.99898 9.8714,-35.72208 -13.3429,-71.91129 -70.3484,-107.95232 -59.0165,-40.04258 -82.7476,-81.93747 -70.9348,-124.7216 6.6171,-23.96761 15.3717,-44.384 26.0963,-60.79155 10.7633,-16.32219 21.1671,-27.7391 32.3454,-34.36935 10.5766,-6.36916 21.2254,-11.07139 31.3818,-14.02706 9.5318,-2.52397 17.8442,-4.44383 24.1624,-4.79002 l 8.6198,0.78441 c -4.1864,37.66324 18.1336,69.62888 67.5007,97.58049 82.064,43.01681 115.4847,93.08401 99.7796,149.92667 -1.2939,4.68321 -20.6652,35.47172 -57.8903,93.31713 -37.2483,57.75053 -60.8343,92.43442 -70.0523,105.20376 -34.4495,43.92595 -55.8896,82.16093 -64.7248,114.11794 z"
     class="fil0" /><rect
     ry="188.02103"
     y="109.89035"
     x="-2302.7334"
     height="2283.75"
     width="2232.2168"
     id="rect4346"
     style="opacity:1;fill:#1c2529;fill-opacity:1;stroke:none;stroke-width:9;stroke-linecap:round;stroke-linejoin:round;stroke-miterlimit:4;stroke-dasharray:none;stroke-opacity:1" /><path
     class="fil0"
     d="m -1330.4027,562.18089 c -11.9333,43.24258 -3.4101,76.21342 25.9967,99.48341 29.5356,22.81117 77.4468,42.79558 144.2931,60.23456 l 483.7617,125.76445 c 42.5848,11.07038 78.3646,24.41816 107.407,39.57917 28.434,15.41099 51.0827,34.91781 67.4558,58.31966 16.3841,23.39275 27.3989,47.45826 33.9924,72.33556 6.6284,24.8799 8.1676,57.0472 4.6764,95.954 -3.4539,38.9007 -9.3441,77.1382 -17.1952,114.9059 -7.8163,37.7702 -19.3474,85.2137 -35.0487,142.0471 -23.6245,85.5771 -47.4511,149.3689 -71.6749,191.9335 -24.0836,42.0973 -55.2545,79.8661 -94.2193,112.042 -38.9999,32.1735 -107.4202,78.8453 -206.021,140.9093 -100.8378,64.4654 -175.9199,116.4934 -224.5348,157.2273 -48.497,40.2835 -78.9015,82.7355 -90.9743,126.5307 -3.8899,14.0491 -7.2522,31.8399 -9.8173,54.3244 -2.5698,22.4847 -5.4169,38.4391 -7.8759,47.3463 -18.8163,68.1286 -59.6252,93.7982 -123.0742,77.3486 -63.4198,-16.5319 -84.3761,-62.756 -63.3621,-138.9585 10.3903,-37.6421 33.054,-76.5611 68.1707,-117.298 35.1119,-40.7368 79.7195,-79.9943 134.0159,-118.7882 53.6709,-38.4429 97.7359,-68.3256 131.1903,-89.7995 32.8491,-21.2162 73.2609,-45.4158 120.1792,-72.5594 98.758,-56.9349 165.6134,-103.4985 200.0411,-139.8943 34.4364,-36.396 62.9753,-96.5176 86.3304,-181.0834 10.6377,-38.5602 16.4202,-70.8462 16.9843,-97.4251 0.5879,-26.4834 -5.1604,-52.7165 -16.983,-79.4283 -11.8137,-26.7959 -34.9918,-49.9597 -68.95,-69.8351 -34.0721,-19.4902 -80.5833,-37.0776 -139.1987,-52.3558 l -428.5436,-111.475 c -84.7579,-22.0286 -144.3755,-54.1965 -179.2636,-96.99208 -35.4919,-42.5458 -44.3075,-95.16597 -27.0654,-157.68433 27.9044,-101.08776 82.5945,-205.27024 164.2239,-312.98706 33.8056,-41.63037 53.3057,-72.79473 59.1477,-93.99898 9.8714,-35.72208 -13.3429,-71.91129 -70.3484,-107.95232 -59.0165,-40.04258 -82.7476,-81.93747 -70.9348,-124.7216 6.6171,-23.96761 15.3717,-44.384 26.0963,-60.79155 10.7633,-16.32219 21.1671,-27.739099 32.3454,-34.369349 10.5766,-6.36916 21.2254,-11.0713905 31.3818,-14.027061 9.5318,-2.52397 17.8442,-4.44383 24.1624,-4.79002 l 8.6198,0.78441 c -4.1864,37.66324 18.1336,69.62888 67.5007,97.58049 82.064,43.01681 115.4847,93.08401 99.7796,149.92667 -1.2939,4.68321 -20.6652,35.47172 -57.8903,93.31713 -37.2483,57.75053 -60.8343,92.43442 -70.0523,105.20376 -34.4495,43.92595 -55.8896,82.16093 -64.7248,114.11794 z"
     id="path4251"
     inkscape:connector-curvature="0"
     style="fill:#ffb145;fill-opacity:1;fill-rule:nonzero;filter:url(#filter4285)"
     transform="matrix(1.0060533,0,0,0.95895294,-28.009509,153.1367)" /></svg>